<svg id="Layer_1" data-name="Layer 1" xmlns="http://www.w3.org/2000/svg" viewBox="0 0 206.32 285.12"><defs><style>.cls-1,.cls-2{fill:#8f663e;stroke:#8f663e;stroke-miterlimit:10;}.cls-1{stroke-width:9px;}.cls-2{stroke-width:8px;}</style></defs><path class="cls-1" d="M186.74,187.48V246a20.29,20.29,0,0,1-.62,6.31,22.86,22.86,0,0,1-1.25,3.32A12.12,12.12,0,0,1,171.5,262a18.11,18.11,0,0,1-6.25-2.48c-1.79-1.15-3.57-2.3-5.33-3.48l-29.69-20c-1.1-.74-2.26-1.37-3.4-2-.21-.12-.91.25-1,.5a11.49,11.49,0,0,0-.25,1.54c-.06,2-.08,4-.09,6v12.34c0,1.19,0,2.39-.07,3.58a18.62,18.62,0,0,1-.89,5.08,11.52,11.52,0,0,1-8,8.15,19,19,0,0,1-3.49.75c-1.85.18-3.71.27-5.56.27q-36.22,0-72.45,0c-.93,0-1.85,0-2.78-.08a1.15,1.15,0,0,1-1-1v-2.78a1.21,1.21,0,0,1,1.34-1.14c1.19,0,2.39,0,3.58,0h69.66c1.46,0,2.9.07,4.38,0a31.37,31.37,0,0,0,4.31-.66,6.72,6.72,0,0,0,5.37-5.72,26.92,26.92,0,0,0,.57-4.73c0-7.17,0-14.33,0-21.5a23.28,23.28,0,0,1,0-2.77,4.87,4.87,0,0,1,6.93-3.7,18,18,0,0,1,1.69,1c7.34,5,14.66,10.06,22,15.05q7.57,5.13,15.23,10.15c1.1.73,2.29,1.33,3.45,2a8.66,8.66,0,0,0,3.84.93,6.73,6.73,0,0,0,6.58-3.64,9.86,9.86,0,0,0,1-3,31.48,31.48,0,0,0,.39-4.75q.11-12.14.11-24.28,0-45.57-.11-91.14c0-1.86-.13-3.71-.26-5.56a7.52,7.52,0,0,0-.92-3,7.6,7.6,0,0,0-8.3-4.07,12.84,12.84,0,0,0-4.76,1.92c-3.1,2-6.23,4-9.32,6.1q-6.48,4.29-12.89,8.64c-2.85,1.94-5.67,3.94-8.48,5.93a80.55,80.55,0,0,1-13.35,7.85c-.6.28-1.25.51-1.84.77a.69.69,0,0,1-.85-.49h0c0-.8-.1-1.59-.09-2.39,0-5,.07-10.08.07-15.12,0-4.38-.09-8.75-.1-13.13a16.75,16.75,0,0,0-.65-4.72,10.19,10.19,0,0,0-.92-2.18,6,6,0,0,0-4.38-3.12c-.91-.16-1.84-.21-2.77-.3-1.18-.11-2.39-.14-3.56-.36a8,8,0,0,1-2.59-.93,4.44,4.44,0,0,1-2.3-4.71,19.36,19.36,0,0,1,1.14-3.78c.61-1.61,1.37-3.16,2-4.76A49.14,49.14,0,0,0,69.12,26c-11.7-2.07-22.68.3-32.91,6.28-1,.61-2,1.23-3.09,1.79a.73.73,0,0,1-.7-.1C31.67,33,31,32.05,30.27,31.1a1,1,0,0,1,.2-1.09c.2-.17.41-.35.61-.5a53.36,53.36,0,0,1,25.58-9.12,51.87,51.87,0,0,1,29.58,6.15c13.34,7.21,22.47,18,26.79,32.59a53.63,53.63,0,0,1-2.15,36.6c-.51,1.22-1.08,2.42-1.59,3.65a11,11,0,0,0-.41,1.52,1.13,1.13,0,0,0,.79,1.18c.66.08,1.31.18,2,.22s1.6,0,2.39.09a11.83,11.83,0,0,1,10.28,7.66,15.19,15.19,0,0,1,1.16,5c.08,1.45.15,2.9.15,4.37,0,6.23,0,12.47,0,18.71a8.34,8.34,0,0,0,.29,1.92c0,.16.42.34.62.33a2.35,2.35,0,0,0,1.1-.33c2.34-1.51,4.7-3,7-4.6,9-6.36,18.26-12.31,27.38-18.49,1.32-.89,2.67-1.74,4.06-2.51a15.17,15.17,0,0,1,7.61-2c5.46.08,9.3,2.68,11.62,7.56a14.51,14.51,0,0,1,1.39,5.76c0,1.32,0,2.65,0,4l.06,29v28.65Z"/><path class="cls-2" d="M52.52,50.58a31.27,31.27,0,0,1,12,1.94A29.76,29.76,0,0,1,83.07,71a33.07,33.07,0,0,1,.33,22.27C80,103.56,73,110.39,62.6,113.52a31.68,31.68,0,0,1-27.47-3.76c-7.77-5-12.31-12.31-13.93-21.37a32.33,32.33,0,0,1,1.34-16.88C26.39,60.8,34,54.24,44.94,51.45A24,24,0,0,1,52.52,50.58ZM80,82.56a22.84,22.84,0,0,0-.9-7.08C76.91,67,71.84,60.9,63.63,57.6A28,28,0,0,0,48.42,56C37.78,57.7,30.53,63.59,27.09,73.82a27.37,27.37,0,0,0,.3,18.32,25.92,25.92,0,0,0,13.74,15.2A27.64,27.64,0,0,0,57,109.6a26,26,0,0,0,14.21-6.52C77.3,97.59,79.92,90.6,80,82.56Z"/></svg>