<svg id="Layer_1" data-name="Layer 1" xmlns="http://www.w3.org/2000/svg" viewBox="0 0 206.32 318.42"><defs><style>.cls-1{fill:#8f663e;}</style></defs><path class="cls-1" d="M194,81.15a4.39,4.39,0,0,1-.06.89,14.61,14.61,0,0,1-.72,1.88q-4.06,8.47-8.15,17-3.56,7.36-7.1,14.78-4.49,9.39-9,18.77-3.47,7.2-6.93,14.42-4.5,9.38-9,18.76-3.45,7.22-6.93,14.42-6,12.45-11.92,24.9l-6.93,14.43q-4.5,9.36-9,18.75c-1.67,3.47-3.32,7-5,10.47a9,9,0,0,1-1,1.63.62.62,0,0,1-.64.06,1.31,1.31,0,0,1-.51-.53c-.44-.81-.89-1.62-1.29-2.46q-5.15-10.85-10.27-21.72c-.51-1.08-1.13-2.09-1.71-3.12a.57.57,0,0,0-.9,0h0c-.67,1.3-1.37,2.57-2,3.91-2.49,5.32-5,10.66-7.44,16-2.82,6.08-5.68,12.08-8.5,18.14-2.71,5.81-5.39,11.64-8.11,17.45q-6.43,13.8-12.9,27.58l-.36.7a1.33,1.33,0,0,1-1.53.65c-.79-.24-1.56-.51-2.34-.78a1.24,1.24,0,0,1-.67-1.47,1.46,1.46,0,0,1,.07-.19c.41-1,.83-2,1.27-3,3.07-6.84,6.11-13.7,9.24-20.5Q69.22,270.8,75,258.7c5.07-10.59,10.22-21.11,15.3-31.69,1.67-3.47,3.26-7,4.83-10.58,2.46-5.51,4.82-11.07,7.31-16.55s5.12-10.88,7.68-16.31c3.42-7.24,6.86-14.47,10.25-21.73q8-17.07,15.87-34.17c2.87-6.18,5.7-12.39,8.57-18.57,3.44-7.37,6.84-14.8,10-22.37.2-.5.44-1,.66-1.46,1.53-3.41,4-4.86,7.15-4.9a37.67,37.67,0,0,1,5.2.18,52.13,52.13,0,0,0,6.24.29h8c1.39,0,2.77-.21,4.16-.23,2.31,0,4.63,0,6.94,0C193.4,80.57,193.7,81,194,81.15Z"/><path class="cls-1" d="M52.24,313.42a5.15,5.15,0,0,1-1.54-.24c-.82-.26-1.64-.54-2.47-.83a5.88,5.88,0,0,1-3.31-3.21,7.81,7.81,0,0,1-.44-5.05,7.19,7.19,0,0,1,.36-1.08c.47-1.15.91-2.18,1.33-3.12l2.58-5.74c2.17-4.86,4.42-9.88,6.68-14.8,3.74-8.1,7.58-16.3,11.42-24.36q4.19-8.76,8.42-17.46,3.45-7.11,6.88-14.25c1.65-3.41,3.23-7,4.77-10.42,1-2.24,2-4.49,3-6.74,1.41-3.24,2.87-6.58,4.37-9.86,1.74-3.84,3.57-7.67,5.34-11.39l2.37-5c1.09-2.31,2.19-4.63,3.28-6.95q3.49-7.37,7-14.76c5.36-11.48,10.7-23,15.88-34.15L132,115.5q2.31-5,4.64-10.06c3.81-8.18,7-15.08,9.89-22.15.18-.41.36-.81.55-1.2l.2-.44c2.23-5,6.05-7.66,11.05-7.74a43.29,43.29,0,0,1,5.69.19,47.05,47.05,0,0,0,5.79.28h8.05c.52,0,1.15-.05,1.8-.1s1.5-.11,2.3-.12c2.3,0,4.61,0,6.87,0a4.84,4.84,0,0,1,3.44,1.4L194.19,77l.14,2.84a9.85,9.85,0,0,1-.14,2.37l-.07.41L194,83a22.54,22.54,0,0,1-1,2.6l0,.08q-4.07,8.49-8.15,17-3.56,7.37-7.09,14.77l-9,18.77q-3.47,7.22-6.93,14.43l-9,18.75q-3.47,7.23-6.94,14.43-6,12.44-11.92,24.89L127,223.07l-9,18.75-2.19,4.6L113,252.31l0,.1a15.44,15.44,0,0,1-1.65,2.57l-.44.56-.56.38a4.48,4.48,0,0,1-4.62.41l-.16-.08a6.09,6.09,0,0,1-2.47-2.53c-.53-.94-1-1.8-1.45-2.76q-4.2-8.86-8.4-17.77l-2.43,5.22c-1.18,2.55-2.36,5.09-3.55,7.64q-2.25,4.83-4.53,9.65-2,4.23-4,8.47t-4,8.53q-2.07,4.47-4.15,8.93-6.43,13.8-12.91,27.58c-.12.27-.24.49-.36.71l-.3.56A5.73,5.73,0,0,1,52.24,313.42Zm.78-5.58,0,0Zm41.89-89.72a5.33,5.33,0,0,1,1.81,1.31l.38.43.29.52c.14.26.29.51.44.77.46.8,1,1.7,1.46,2.7q4.18,8.88,8.36,17.71l.27-.56q1.1-2.33,2.21-4.63l9-18.75q3.47-7.22,6.92-14.42,6-12.45,11.93-24.9l6.93-14.42q4.48-9.37,9-18.76l6.92-14.42,9-18.77q3.54-7.41,7.1-14.8,2.91-6,5.81-12.06h-.64c-.58,0-1.2,0-1.86.1s-1.5.11-2.3.12h-8a53.49,53.49,0,0,1-6.65-.31,34.51,34.51,0,0,0-4.66-.16h-.08a3,3,0,0,0-3.18,2c-.11.22-.19.41-.28.6s-.23.47-.33.72c-3,7.25-6.22,14.27-10.09,22.59-1.55,3.32-3.08,6.66-4.62,10q-2,4.29-3.94,8.56c-5.18,11.18-10.53,22.68-15.89,34.18q-3.47,7.43-7,14.81c-1.1,2.31-2.19,4.63-3.28,6.94-.8,1.68-1.59,3.36-2.39,5-1.75,3.67-3.55,7.46-5.26,11.2-1.45,3.2-2.89,6.5-4.29,9.69-1,2.28-2,4.56-3,6.82Z"/><path class="cls-1" d="M33.43,70.18c3.35,0,6.71-.06,10.07,0,2.89.07,5.79.29,8.66.43a3.49,3.49,0,0,1,2.24,1A13.75,13.75,0,0,1,57.54,76c1.91,4.12,3.88,8.2,5.79,12.32q7.15,15.45,14.27,30.93c2.67,5.83,5.23,11.74,7.85,17.61q1.88,4.22,3.79,8.42c.46,1,1,1,1.47-.1q3.12-6.51,6.2-13,6-12.65,11.93-25.36c2.71-5.8,5.35-11.65,8-17.48q5-10.74,9.93-21.45,3.94-8.53,7.92-17.08c2.9-6.17,5.82-12.3,8.65-18.5,2.27-5,4.73-9.86,6.69-15,.48-1.26,1.05-2.47,1.6-3.68A7,7,0,0,1,157,9.48c.49-.1,1.33,1,1.28,1.7a4.79,4.79,0,0,1-.21,1.2c-.29.76-.64,1.48-1,2.21q-4.65,10-9.28,20L139,53.47q-4,8.53-7.9,17.1-4.72,10.17-9.46,20.34c-2.7,5.82-5.36,11.65-8.06,17.47-3.09,6.66-6.21,13.31-9.3,20-2.7,5.82-5.37,11.66-8.07,17.47-2.81,6.07-5.65,12.09-8.46,18.15s-5.73,12.36-8.58,18.55q-1.86,4-3.73,8a.64.64,0,0,1-.94.33.8.8,0,0,1-.21-.2c-.49-.94-1-1.87-1.44-2.83-.93-1.92-1.83-3.86-2.74-5.79l-11-23.6Q51.09,141.18,43,124L27,89.87c-2.5-5.32-5-10.61-7.53-15.92-.32-.74-.61-1.49-.87-2.26a1.12,1.12,0,0,1,.58-1.31,15.79,15.79,0,0,1,2.06-.2C25.33,70.17,29.38,70.18,33.43,70.18Z"/><path class="cls-1" d="M76.57,196.39a4.54,4.54,0,0,1-2.48-.76,5.61,5.61,0,0,1-1.57-1.54l-.18-.27-.25-.47c-.48-.91-1-1.85-1.45-2.84-.9-1.88-1.79-3.78-2.68-5.68L56.87,161.07q-8.05-17.22-16.13-34.44-8-17.05-16-34.08-1.9-4.06-3.83-8.12-1.86-3.9-3.69-7.8l-.06-.13c-.4-.91-.76-1.85-1.07-2.8L16,73.23c-.83-3.37.77-7,3.56-8l.38-.14L20.3,65a21.81,21.81,0,0,1,2.55-.26H35.14l3.33,0c2.22,0,4.52,0,6.81,0,2,0,4,.16,5.93.27l2.85.17a7.51,7.51,0,0,1,4.85,2.14,18.94,18.94,0,0,1,4.35,6.12c.92,2,1.89,4,2.85,6.07s2,4.12,2.92,6.2c4.75,10.25,9.56,20.66,14.28,31,1.76,3.85,3.5,7.78,5.17,11.58.9,2,1.79,4.06,2.7,6.09l.57,1.29c1-2,1.94-4.08,2.91-6.12q6-12.63,11.91-25.33c1.69-3.61,3.35-7.24,5-10.87q1.5-3.3,3-6.58,5-10.76,9.94-21.47,3.93-8.52,7.92-17.08l2.26-4.79c2.1-4.47,4.29-9.1,6.37-13.67.62-1.36,1.25-2.7,1.88-4.05,1.7-3.62,3.3-7,4.65-10.63.5-1.3,1-2.48,1.57-3.62l.2-.44A11.52,11.52,0,0,1,158,4.09a4.88,4.88,0,0,1,4.56,1.78,8,8,0,0,1,2,5.64,11.5,11.5,0,0,1-.5,2.82l-.11.32c-.33.87-.7,1.66-1,2.35l-.11.25-9.28,20q-4.39,9.45-8.81,18.9c-1.43,3.07-2.85,6.17-4.28,9.27l-3.61,7.81q-4.72,10.19-9.47,20.35c-1.26,2.72-2.52,5.46-3.78,8.2q-2.13,4.64-4.28,9.26-2.66,5.72-5.32,11.42-2,4.27-4,8.54c-1.26,2.72-2.51,5.44-3.77,8.17-1.43,3.1-2.85,6.2-4.29,9.3-1.52,3.28-3.06,6.56-4.59,9.83q-1.94,4.16-3.88,8.32-4.29,9.25-8.57,18.53c-1.24,2.68-2.49,5.34-3.73,8a5.51,5.51,0,0,1-3.1,3A4.37,4.37,0,0,1,76.57,196.39ZM27.26,75.64c.53,1.13,1.07,2.26,1.61,3.39,1.28,2.72,2.57,5.43,3.85,8.16q8,17,16,34.09,8.09,17.22,16.14,34.45l11.09,23.76c.19.42.39.84.59,1.27.14-.31.29-.61.43-.92q4.26-9.27,8.58-18.55,1.94-4.17,3.89-8.34c.27-.57.53-1.14.8-1.72A5.78,5.78,0,0,1,87,147.91q-1.92-4.22-3.81-8.45c-.91-2-1.81-4.09-2.72-6.13-1.66-3.76-3.38-7.65-5.1-11.43C70.6,111.64,65.8,101.24,61.06,91c-1-2-1.92-4.09-2.88-6.12s-2-4.13-2.91-6.2a8.66,8.66,0,0,0-1.81-2.62l-2.7-.15c-1.86-.11-3.78-.23-5.64-.27-2.17,0-4.42,0-6.6,0H27.26Zm61.21,66.84h0Zm71-127.61h0Z"/></svg>