<svg id="Layer_1" data-name="Layer 1" xmlns="http://www.w3.org/2000/svg" viewBox="0 0 268.39 318.42"><defs><style>.cls-1{fill:#8f663e;}</style></defs><path class="cls-1" d="M229.59,89.44a2.76,2.76,0,0,1-.07.86,13.56,13.56,0,0,1-.83,1.82q-4.69,8.17-9.41,16.34-4.11,7.11-8.21,14.26l-10.4,18.09q-4,7-8,13.91-5.21,9-10.39,18.09l-8,13.91q-6.9,12-13.78,24l-8,13.91q-5.19,9-10.39,18.09c-1.93,3.35-3.84,6.74-5.78,10.1a9.66,9.66,0,0,1-1.21,1.57.86.86,0,0,1-.73.06,1.3,1.3,0,0,1-.59-.52c-.52-.77-1-1.56-1.5-2.37q-5.94-10.45-11.87-20.94c-.59-1-1.31-2-2-3a.74.74,0,0,0-1,0h0c-.78,1.25-1.59,2.47-2.31,3.76-2.89,5.14-5.73,10.29-8.6,15.42-3.27,5.86-6.57,11.65-9.83,17.49-3.14,5.6-6.23,11.23-9.37,16.83q-7.44,13.31-14.91,26.6l-.42.68a1.66,1.66,0,0,1-1.77.62c-.91-.23-1.8-.49-2.7-.75a1.14,1.14,0,0,1-.77-1.42,1.34,1.34,0,0,1,.07-.18c.47-1,1-1.91,1.47-2.86,3.55-6.59,7.06-13.21,10.68-19.77q6.5-11.76,13.15-23.42c5.86-10.21,11.81-20.36,17.68-30.56,1.94-3.35,3.77-6.78,5.59-10.2,2.84-5.32,5.57-10.68,8.45-16s5.91-10.49,8.87-15.72c4-7,7.93-14,11.84-21q9.21-16.45,18.36-32.95c3.31-6,6.58-12,9.9-17.91,4-7.11,7.9-14.27,11.55-21.58.24-.47.51-.93.77-1.4,1.77-3.29,4.64-4.69,8.25-4.73a52.56,52.56,0,0,1,6,.17,69.41,69.41,0,0,0,7.21.28h9.23c1.61,0,3.21-.19,4.81-.22,2.67,0,5.35,0,8,0C229,88.89,229.29,89.26,229.59,89.44Z"/><path class="cls-1" d="M70.62,314.4a6.72,6.72,0,0,1-1.77-.23c-.95-.24-1.9-.52-2.86-.8a6.41,6.41,0,0,1-4.33-8,6.09,6.09,0,0,1,.41-1c.55-1.11,1.06-2.1,1.54-3q1.5-2.76,3-5.54c2.51-4.69,5.11-9.53,7.73-14.27,4.31-7.82,8.75-15.72,13.18-23.5q4.84-8.45,9.74-16.83,4-6.87,8-13.74c1.9-3.29,3.73-6.73,5.5-10,1.16-2.17,2.29-4.34,3.43-6.51,1.63-3.12,3.32-6.34,5-9.5,2-3.7,4.13-7.4,6.18-11,.91-1.61,1.83-3.21,2.73-4.82l3.8-6.7c2.69-4.74,5.38-9.48,8-14.23,6.19-11.07,12.37-22.16,18.35-32.94q2.28-4.11,4.54-8.22,2.67-4.84,5.37-9.7c4.4-7.89,8-14.54,11.43-21.36.2-.4.41-.78.63-1.16l.23-.42c2.58-4.79,7-7.39,12.77-7.47a57.78,57.78,0,0,1,6.58.19,62.75,62.75,0,0,0,6.69.26h9.3c.61,0,1.33-.05,2.09-.1s1.72-.1,2.65-.11c2.66,0,5.33,0,7.94,0a6.26,6.26,0,0,1,4,1.35l2.21,1.35.18,2.74a8.79,8.79,0,0,1-.17,2.29l-.08.38-.14.37a17.83,17.83,0,0,1-1.16,2.51l0,.08q-4.69,8.17-9.42,16.35-4.11,7.11-8.2,14.25l-10.4,18.1q-4,7-8,13.91-5.2,9-10.39,18.09-4,7-8,13.92l-13.77,24-8,13.93-10.39,18.08c-.85,1.47-1.69,2.95-2.54,4.43-1.08,1.89-2.16,3.79-3.26,5.68l-.05.09a13.94,13.94,0,0,1-1.9,2.48l-.52.54-.64.38a6.08,6.08,0,0,1-5.34.39l-.19-.08a6.65,6.65,0,0,1-2.86-2.44c-.6-.91-1.14-1.73-1.67-2.66L118,237l-2.8,5c-1.37,2.46-2.73,4.92-4.11,7.37q-2.59,4.66-5.23,9.31c-1.53,2.72-3.07,5.44-4.59,8.17s-3.06,5.48-4.58,8.23-3.19,5.74-4.79,8.6Q84.44,297.06,77,310.35c-.14.25-.28.46-.41.68l-.36.54A6.9,6.9,0,0,1,70.62,314.4Zm.9-5.38v0Zm48.42-86.52a6.06,6.06,0,0,1,2.09,1.27l.44.41.33.5.51.74c.54.77,1.14,1.64,1.69,2.61q4.83,8.55,9.67,17.07l.3-.53q1.28-2.25,2.56-4.47L147.91,222q4-7,8-13.91l13.79-24q4-7,8-13.91L188.1,152.1q4-7,8-13.91l10.39-18.1q4.09-7.14,8.21-14.27,3.36-5.82,6.71-11.64h-.74c-.67,0-1.39.06-2.14.1s-1.74.11-2.67.12h-9.3a77,77,0,0,1-7.69-.3A45.91,45.91,0,0,0,193.5,94h-.1c-2.2,0-3,.77-3.67,2l-.32.58c-.13.23-.27.46-.38.7-3.49,7-7.19,13.76-11.66,21.78q-2.69,4.82-5.34,9.65c-1.52,2.75-3,5.5-4.56,8.25-6,10.79-12.16,21.88-18.36,33q-4,7.15-8.06,14.29l-3.79,6.69-2.76,4.85c-2,3.54-4.1,7.19-6.08,10.81-1.68,3.08-3.34,6.26-4.95,9.34-1.15,2.2-2.3,4.39-3.47,6.58Z"/><path class="cls-1" d="M48.44,69.83c3.88,0,7.76-.06,11.64,0,3.35.06,6.69.28,10,.42a4.36,4.36,0,0,1,2.59,1,13.61,13.61,0,0,1,3.63,4.25c2.21,4,4.48,7.91,6.69,11.88q8.28,14.89,16.5,29.83c3.08,5.63,6,11.32,9.06,17q2.18,4.07,4.39,8.12c.52,1,1.11.94,1.7-.1q3.6-6.27,7.16-12.55,6.9-12.2,13.78-24.46c3.14-5.59,6.2-11.24,9.3-16.85q5.72-10.36,11.48-20.7,4.56-8.22,9.16-16.46c3.34-5.95,6.72-11.86,10-17.85,2.63-4.8,5.47-9.5,7.73-14.5.55-1.22,1.21-2.39,1.86-3.56a8,8,0,0,1,6.18-4c.58-.09,1.54,1,1.48,1.64a3.81,3.81,0,0,1-.24,1.16c-.33.73-.73,1.43-1.12,2.13L180.68,35.49q-5.07,9.12-10.17,18.22-4.59,8.24-9.13,16.49Q155.92,80,150.44,89.82c-3.12,5.61-6.2,11.24-9.32,16.85-3.57,6.42-7.17,12.83-10.75,19.24-3.11,5.61-6.2,11.24-9.32,16.84-3.25,5.86-6.53,11.67-9.78,17.51s-6.62,11.92-9.92,17.89q-2.14,3.85-4.3,7.7a.8.8,0,0,1-1.09.32.88.88,0,0,1-.24-.19c-.57-.9-1.14-1.81-1.67-2.73q-1.6-2.79-3.16-5.59-6.37-11.37-12.73-22.75-9.31-16.62-18.65-33.23-9.23-16.43-18.46-32.86c-2.88-5.13-5.81-10.24-8.69-15.36a22.6,22.6,0,0,1-1-2.18A1,1,0,0,1,32,70c.79-.1,1.58-.17,2.38-.2Z"/><path class="cls-1" d="M96.33,191.54a6,6,0,0,1-2.87-.73,5.78,5.78,0,0,1-1.81-1.49l-.21-.25-.29-.46c-.55-.88-1.12-1.78-1.67-2.74-1-1.81-2.07-3.64-3.1-5.47L73.56,157.48,54.92,124.26Q45.7,107.84,36.46,91.4q-2.2-3.91-4.43-7.83c-1.43-2.51-2.85-5-4.26-7.52l-.07-.13a26.35,26.35,0,0,1-1.24-2.7l-.16-.45A6.32,6.32,0,0,1,30.42,65l.43-.14.45-.06a25.9,25.9,0,0,1,2.94-.25h18c2.57,0,5.23,0,7.87,0,2.33,0,4.63.16,6.86.27l3.29.15a9.66,9.66,0,0,1,5.61,2.07,18.63,18.63,0,0,1,5,5.9c1.07,1.93,2.19,3.89,3.3,5.85s2.26,4,3.37,6c5.49,9.89,11,19.93,16.5,29.85,2,3.72,4,7.51,6,11.17l3.12,5.87c.22.41.44.83.67,1.24l3.35-5.89q6.88-12.18,13.77-24.44c1.95-3.47,3.87-7,5.79-10.48,1.16-2.11,2.32-4.23,3.49-6.34Q146,75.39,151.76,65.05q4.56-8.22,9.16-16.47L163.53,44c2.44-4.31,5-8.77,7.36-13.18q1.08-2,2.18-3.9c2-3.5,3.82-6.8,5.38-10.25.57-1.27,1.2-2.4,1.8-3.5l.24-.43c2-3.63,5.35-5.85,9.95-6.61a6.26,6.26,0,0,1,5.27,1.72A7,7,0,0,1,198,13.25a9.06,9.06,0,0,1-.58,2.72l-.13.3c-.38.85-.8,1.6-1.18,2.27l-.13.24q-5.35,9.65-10.73,19.28-5.07,9.11-10.17,18.22c-1.66,3-3.31,6-5,8.94-1.39,2.52-2.77,5-4.17,7.54Q160.52,82.59,155,92.39q-2.19,3.93-4.37,7.9-2.46,4.47-4.94,8.94l-6.15,11-4.6,8.24q-2.19,3.93-4.36,7.88-2.48,4.49-5,9c-1.76,3.17-3.53,6.32-5.3,9.48q-2.25,4-4.49,8-5,8.93-9.9,17.87-2.16,3.88-4.32,7.72a6,6,0,0,1-3.57,2.88A6.22,6.22,0,0,1,96.33,191.54Zm-57-116.45,1.86,3.27q2.23,3.93,4.46,7.87L64.11,119.1l18.65,33.23,12.81,22.91.69,1.23c.16-.3.33-.59.49-.88q4.94-8.94,9.92-17.9,2.23-4,4.49-8l.93-1.66a6.29,6.29,0,0,1-3.77-3.2q-2.22-4.06-4.4-8.15c-1.06-2-2.1-3.94-3.14-5.91-1.92-3.63-3.91-7.38-5.9-11-5.45-9.89-11-19.92-16.48-29.8-1.1-2-2.21-3.93-3.33-5.9s-2.25-4-3.37-6a8.15,8.15,0,0,0-2.09-2.52l-3.12-.15c-2.14-.1-4.36-.21-6.51-.25-2.51,0-5.12,0-7.63,0l-3.91,0H39.33Zm70.75,64.46h0ZM192.16,16.49h0Z"/></svg>