<?xml version="1.0" encoding="utf-8"?>
<!-- Generator: Adobe Illustrator 24.1.1, SVG Export Plug-In . SVG Version: 6.00 Build 0)  -->
<svg version="1.1" id="Layer_1" xmlns="http://www.w3.org/2000/svg" xmlns:xlink="http://www.w3.org/1999/xlink" x="0px" y="0px"
	 viewBox="0 0 1354.2 705.4" style="enable-background:new 0 0 1354.2 705.4;" xml:space="preserve">
<style type="text/css">
	.st0{fill:#FFFFFF;stroke:#8F663E;}
	.st1{fill:#8F663E;}
	.st2{fill:#8F663E;stroke:#8F663E;stroke-width:8;stroke-miterlimit:10;}
	.st3{fill:#8F663E;stroke:#8F663E;stroke-width:7;stroke-miterlimit:10;}
	.st4{fill:#C79D6F;}
</style>
<path class="st0" d="M449.9,142.1c0,0.7,0,1.4-0.2,2.1c-0.6,1.5-1.2,2.9-2,4.3c-7.5,13-15,26-22.5,39.1
	c-6.5,11.3-13.1,22.7-19.6,34.1c-8.3,14.4-16.6,28.8-24.9,43.3c-6.4,11.1-12.7,22.2-19.1,33.3c-8.3,14.4-16.6,28.8-24.8,43.3
	c-6.4,11.1-12.8,22.2-19.2,33.3c-11,19.1-22,38.3-33,57.4c-6.4,11.1-12.7,22.2-19.1,33.3c-8.3,14.4-16.6,28.8-24.8,43.2
	c-4.6,8-9.2,16.1-13.8,24.1c-0.8,1.4-1.8,2.6-2.9,3.8c-0.5,0.3-1.2,0.4-1.8,0.1c-0.6-0.3-1.1-0.7-1.4-1.2c-1.2-1.9-2.5-3.7-3.6-5.7
	c-9.5-16.7-18.9-33.4-28.4-50.1c-1.4-2.5-3.1-4.8-4.7-7.2c-0.7-0.7-1.8-0.6-2.5,0.1c0,0,0,0,0,0c-1.9,3-3.8,5.9-5.5,9
	c-6.9,12.3-13.7,24.6-20.6,36.9c-7.8,14-15.7,27.8-23.5,41.8c-7.5,13.4-14.9,26.8-22.4,40.2C97.8,621.7,86,642.8,74.1,664
	c-0.3,0.6-0.7,1.1-1,1.6c-1,1.3-2.6,1.9-4.2,1.5c-2.2-0.6-4.3-1.2-6.5-1.8c-1.4-0.4-2.3-1.9-1.8-3.4c0-0.2,0.1-0.3,0.2-0.4
	c1.1-2.3,2.3-4.6,3.5-6.8c8.5-15.8,16.9-31.6,25.5-47.3c10.4-18.7,20.8-37.4,31.4-56c14-24.4,28.2-48.7,42.3-73.1
	c4.6-8,9-16.2,13.4-24.4c6.8-12.7,13.3-25.5,20.2-38.2s14.1-25.1,21.2-37.6c9.4-16.7,19-33.4,28.3-50.1
	c14.7-26.2,29.3-52.5,43.9-78.8c7.9-14.3,15.7-28.6,23.7-42.8c9.5-17,18.9-34.1,27.6-51.6c0.6-1.1,1.2-2.2,1.8-3.4
	c4.2-7.9,11.1-11.2,19.7-11.3c4.8-0.1,9.6,0,14.4,0.4c5.7,0.5,11.5,0.7,17.2,0.7c7.4,0,14.7,0,22.1,0c3.8,0,7.7-0.5,11.5-0.5
	c6.4-0.1,12.8-0.1,19.2,0C448.4,140.8,449.2,141.7,449.9,142.1z"/>
<path class="st0" d="M41.5,140.5c9.3,0,18.5-0.1,27.8,0c8,0.2,16,0.7,23.9,1c2.3,0.1,4.4,0.9,6.2,2.3c3.6,2.7,6.5,6.2,8.7,10.2
	c5.3,9.5,10.7,18.9,16,28.4c13.2,23.7,26.3,47.5,39.4,71.3c7.4,13.5,14.4,27.1,21.7,40.6c3.5,6.5,7,12.9,10.5,19.4
	c1.3,2.3,2.7,2.2,4.1-0.2c5.7-10,11.4-20,17.1-30c11-19.4,22-38.9,32.9-58.5c7.5-13.4,14.8-26.9,22.2-40.3
	c9.1-16.5,18.3-33,27.4-49.5c7.3-13.1,14.6-26.2,21.9-39.4c8-14.2,16.1-28.3,23.9-42.7c6.3-11.5,13.1-22.7,18.5-34.7
	c1.3-2.9,2.9-5.7,4.4-8.5c3.2-5.8,8.5-8.4,14.8-9.4c1.4-0.2,3.7,2.3,3.5,3.9c0,0.9-0.2,1.9-0.6,2.8c-0.8,1.7-1.8,3.4-2.7,5.1
	c-8.5,15.4-17.1,30.7-25.6,46.1c-8.1,14.5-16.2,29-24.3,43.5c-7.3,13.1-14.5,26.3-21.8,39.4c-8.7,15.6-17.4,31.3-26.1,46.9
	c-7.5,13.4-14.8,26.9-22.3,40.3c-8.5,15.4-17.2,30.7-25.7,46c-7.5,13.4-14.8,26.9-22.3,40.3c-7.8,14-15.6,27.9-23.4,41.8
	c-7.9,14.2-15.8,28.5-23.7,42.8c-3.4,6.1-6.9,12.3-10.3,18.4c-0.5,0.9-1.7,1.3-2.6,0.8c-0.2-0.1-0.4-0.3-0.6-0.5
	c-1.4-2.2-2.7-4.3-4-6.5c-2.5-4.4-5-8.9-7.5-13.3c-10.1-18.1-20.3-36.3-30.4-54.4c-14.8-26.5-29.7-53-44.6-79.4
	c-14.7-26.2-29.4-52.4-44.1-78.6C16.9,173.6,9.9,161.4,3,149.1c-0.9-1.7-1.7-3.4-2.4-5.2c-0.4-1.3,0.3-2.6,1.6-3
	c1.9-0.3,3.8-0.4,5.7-0.5C19.1,140.4,30.3,140.5,41.5,140.5z"/>
<path class="st1" d="M955.5,438.3c0.4-15,1.5-27.4,5-39.5c2.5-8.9,6.2-17.5,11-25.4c10.4-17.5,27.2-30.4,46.8-35.9
	c20.3-6.2,42-6.2,62.4-0.1c23,6.7,39.8,21,50.8,42.3c5.8,11.4,9.5,23.8,11.1,36.5c1.8,13.6,1.8,27.5,0.1,41.1
	c-1.7,14-6.1,27.5-12.8,39.9c-10.2,18.4-25.4,30.9-45.2,37.9c-3,1-6.1,1.9-9.2,2.8c-1.5,0.6-2.5,2.1-2.6,3.7c0.1,8.7,1,17.2,4,25.4
	c0.9,2.7,2.1,5.3,3.5,7.8c3.3,5.6,7.7,9.4,14.7,8.6c0.8-0.1,1.2,0.3,1.1,1.1c0,0.3,0,0.6-0.2,0.9c-0.3,0.5-0.7,1.1-1.2,1.5
	c-3.5,3.3-8.1,5.3-13,5.5c-6.7,0.7-13.5-0.4-19.7-3c-19.4-8.4-30.9-23.1-34.8-43.8c-0.1-0.6-0.2-1.3-0.2-1.9c-0.1-3.6-1.6-6-5.4-6.7
	c-2.2-0.5-4.3-1.1-6.4-1.9c-20.9-7.1-36.6-20.5-46.8-40.1c-6.5-12.5-10.6-26.1-11.9-40.2C956,448.5,955.8,442.1,955.5,438.3z
	 M1093.8,438.3c-0.2-7.4-0.5-14.4-0.7-21.4c-0.5-12.5-2.6-24.8-6.1-36.8c-1.8-6.5-4.4-12.7-7.7-18.6c-2.3-4.2-5.3-8-8.8-11.3
	c-6.2-5.6-13.6-8.7-21.9-8.3c-7.4,0.3-14.5,3.3-19.9,8.5c-3.7,3.6-6.8,7.7-9.2,12.2c-3,5.6-5.4,11.6-7.1,17.8
	c-3.4,12-5.5,24.4-6,36.8c-0.7,14.4-0.6,28.8,0.2,43.2c0.8,13.4,3.4,26.7,7.7,39.4c1.8,5.5,4.2,10.7,7.2,15.7
	c2.4,4.2,5.5,7.9,9.2,11c11.4,9.5,26,9.9,37.8,0.4c3.7-3.1,6.9-6.7,9.3-10.9c2.9-4.6,5.2-9.5,7-14.7c4.4-12.4,7.1-25.3,8-38.4
	C1093.4,454.6,1093.5,446.3,1093.8,438.3L1093.8,438.3z"/>
<path class="st2" d="M1340.4,483.3v141c0,5.1,0.1,10.3-1.5,15.2c-0.8,2.7-1.8,5.4-3,8c-6,11.8-19.3,18.1-32.2,15.3
	c-5.3-1-10.5-3.1-15.1-6c-4.3-2.8-8.6-5.5-12.8-8.4c-23.9-16.1-47.7-32.2-71.6-48.3c-2.6-1.8-5.4-3.3-8.2-4.9
	c-0.5-0.3-2.2,0.6-2.3,1.2c-0.3,1.2-0.5,2.5-0.6,3.7c-0.1,4.8-0.2,9.6-0.2,14.4c0,9.9,0,19.8,0,29.8c0,2.9-0.1,5.8-0.2,8.6
	c-0.1,4.2-0.9,8.3-2.1,12.3c-3,9.9-9.4,16.6-19.3,19.6c-2.7,0.9-5.6,1.5-8.4,1.8c-4.4,0.4-8.9,0.7-13.4,0.7
	c-58.2,0.1-116.4,0.1-174.6,0.1c-2.2,0-4.5-0.1-6.7-0.2c-1.3-0.1-2.3-1.2-2.5-2.5c0-2.2,0-4.5,0-6.7c0.1-1.7,1.3-2.7,3.2-2.8
	c2.9-0.1,5.8-0.1,8.6-0.1h167.9c3.5,0,7,0.2,10.6-0.1c3.5-0.3,7-0.8,10.4-1.6c7.3-1.7,11.5-6.6,12.9-13.8c0.8-3.8,1.3-7.6,1.4-11.4
	c0.1-17.3,0-34.5,0-51.8c-0.1-2.2-0.1-4.5,0.1-6.7c0.8-7.3,9.5-12.6,16.7-8.9c1.4,0.7,2.8,1.6,4.1,2.5
	c17.7,12.1,35.3,24.2,53.1,36.3c12.2,8.3,24.4,16.4,36.7,24.5c2.7,1.8,5.5,3.2,8.3,4.8c2.9,1.5,6,2.2,9.3,2.2
	c7,0.3,12.5-2.6,15.9-8.8c1.2-2.2,2.1-4.7,2.5-7.2c0.6-3.8,0.9-7.6,0.9-11.4c0.2-19.5,0.3-39,0.3-58.5
	c-0.1-73.2-0.1-146.5-0.3-219.7c0-4.5-0.3-8.9-0.6-13.4c-0.2-2.6-1-5-2.2-7.3c-4.1-7.6-11.7-11.4-20-9.8c-4.1,0.8-8,2.3-11.5,4.6
	c-7.5,4.9-15,9.8-22.5,14.7c-10.4,6.9-20.7,13.8-31.1,20.8c-6.9,4.7-13.7,9.5-20.4,14.3c-10.1,7.3-20.9,13.7-32.2,18.9
	c-1.4,0.7-3,1.2-4.4,1.8c-0.9,0.2-1.8-0.3-2.1-1.2c0,0,0,0,0,0c-0.1-1.9-0.2-3.8-0.2-5.7c0-12.2,0.2-24.3,0.2-36.5
	c0-10.5-0.2-21.1-0.2-31.7c0-3.8-0.5-7.7-1.6-11.4c-0.5-1.8-1.3-3.6-2.2-5.3c-2.1-4-6.1-6.8-10.6-7.5c-2.2-0.4-4.4-0.5-6.7-0.7
	c-2.9-0.3-5.8-0.3-8.6-0.9c-2.2-0.4-4.3-1.1-6.3-2.2c-4.2-2.5-6.3-6.5-5.5-11.3c0.6-3.1,1.5-6.2,2.8-9.1c1.5-3.9,3.3-7.6,4.9-11.5
	c15.6-38.5,10.2-82-14.4-114.7c-19.1-25.4-44.6-41-75.8-46.5c-28.2-5-54.7,0.7-79.3,15.2c-2.5,1.5-4.9,3-7.4,4.3
	c-0.6,0.2-1.2,0.1-1.7-0.2c-1.8-2.2-3.5-4.5-5.2-6.8c-0.4-0.9-0.2-1.9,0.5-2.6c0.5-0.4,1-0.8,1.5-1.2c18.7-12.5,39.2-20.1,61.7-22
	c24.7-2.2,49.5,2.9,71.3,14.8c32.2,17.4,54.2,43.3,64.6,78.6c8.8,30,6.7,59.4-5.2,88.2c-1.2,3-2.6,5.8-3.8,8.8
	c-0.4,1.2-0.8,2.4-1,3.7c-0.1,1.3,0.7,2.5,1.9,2.8c1.6,0.2,3.2,0.4,4.8,0.5c1.9,0.1,3.8,0,5.8,0.2c11.8,1.3,20.2,7.4,24.8,18.5
	c1.6,3.8,2.6,7.9,2.8,12.1c0.2,3.5,0.3,7,0.4,10.5c0,15,0,30.1,0.1,45.1c0.1,1.6,0.3,3.1,0.7,4.6c0.1,0.4,1,0.8,1.5,0.8
	c0.9,0,1.8-0.3,2.7-0.8c5.6-3.6,11.3-7.2,16.8-11.1c21.7-15.3,44-29.7,66-44.6c3.2-2.2,6.4-4.2,9.8-6c5.6-3.2,11.9-4.9,18.3-4.8
	c13.2,0.2,22.4,6.5,28,18.2c2.1,4.4,3.2,9.1,3.3,13.9c0.1,3.2,0.1,6.4,0.1,9.6c0.1,23.3,0.1,46.7,0.2,70c0,23,0,46.1,0,69.1
	L1340.4,483.3z"/>
<path class="st1" d="M845.4,437.2c0-22.1,0-44.1,0-66.2c0-4.2,0-8.3-0.1-12.5c0-2.2-0.2-4.5-0.6-6.7c-1-4.8-3.6-8.1-8.7-9.1
	c-1.9-0.4-3.8-0.7-5.7-1.1c-1-0.2-1.7-1-1.7-2c0-1,0.7-1.8,1.6-2c1.6-0.1,3.2-0.3,4.8-0.3h69.1c1.6,0,3.2-0.2,4.6,0.8
	c0.2,0.2,0.4,0.5,0.4,0.8c0.1,0.6,0,1.2-0.3,1.8c-0.4,0.5-0.9,0.9-1.6,1c-2.2,0.5-4.4,0.8-6.6,1.4c-3.5,0.9-6.2,3.7-7,7.2
	c-0.4,1.5-0.6,3.1-0.7,4.7c-0.2,4.2-0.3,8.3-0.3,12.5c0,46.4,0,92.8,0,139.2c0,3.8,0.1,7.7,0.3,11.5c0,1.6,0.2,3.2,0.5,4.8
	c0.6,3.9,3.5,7.1,7.3,8.1c2.4,0.7,5,1.1,7.4,1.7c0.9,0.4,1.4,1.4,1,2.4c-0.2,0.6-0.6,1-1.2,1.3c-0.9,0.3-1.9,0.4-2.8,0.4
	c-24,0-48,0-72,0c-1.3,0-2.5-0.2-3.7-0.6c-0.4-0.1-0.8-1-0.9-1.5s0.3-1.5,0.7-1.6c2.1-0.7,4.3-1.2,6.5-1.6c5-1,7.8-4.2,8.8-9
	c0.4-2.2,0.6-4.4,0.7-6.7c0.1-4.2,0.1-8.3,0.1-12.5C845.4,481.3,845.4,459.3,845.4,437.2z"/>
<path class="st3" d="M1036.2,134c9.9-0.4,19.7,1.2,29,4.7c21.7,8,36.8,22.9,44.7,44.6c6.5,17.3,6.8,36.2,0.8,53.7
	c-8.3,24.8-25.1,41.3-50.1,48.8c-23.3,7-45.7,4.2-66.2-9.1c-18.7-12.1-29.7-29.7-33.6-51.5c-2.6-13.6-1.4-27.6,3.2-40.7
	c9.3-25.8,27.7-41.7,54-48.4C1024.1,134.5,1030.4,133.5,1036.2,134z M1102.5,211.1c0.2-5.8-0.5-11.5-2.2-17.1
	c-5.4-20.5-17.6-35.1-37.4-43.1c-11.6-4.7-24.3-6-36.7-3.9c-25.6,4.2-43.1,18.3-51.4,43c-4.8,14.4-4.6,30,0.7,44.2
	c5.5,16.2,17.5,29.5,33.1,36.6c12.2,5.8,25,7.2,38.3,5.4c12.8-1.6,24.7-7.1,34.3-15.7C1095.9,247.3,1102.2,230.5,1102.5,211.1
	L1102.5,211.1z"/>
<path class="st0" d="M524.8,503.3c0,5.4,0,10.9,0,16.3c0,1.6,0.1,3.2,0.3,4.8c0.1,2.1,2,3.7,4,3.5c0.3,0,0.5-0.1,0.8-0.1
	c1.2-0.3,2.4-0.9,3.6-1.2c0.6,0,1.1,0.2,1.5,0.5c0.2,0.1,0.2,0.7,0,0.9c-4.6,9.8-16.4,11.5-23.7,8c-1.4-0.7-2.7-1.7-4.1-2.5
	c-1-0.6-2.2-1.8-3.2-1.7s-2.1,1.3-3.2,2c-0.3,0.2-0.5,0.4-0.8,0.6c-9.9,6.6-19.9,6.1-29.7,0c-4.7-2.8-8.1-7.5-9.2-12.9
	c-0.6-2.8-0.9-5.7-0.9-8.5c-0.1-7.3,0-14.7,0-22.1c0-1.9,0-3.8,0-5.8c-0.2-5.1-1.5-5.9-6.6-4.5c-0.6,0.2-1.2,0.3-1.9,0.4
	c-0.3,0-0.8-0.2-0.8-0.4c-0.2-0.5-0.3-1.1-0.1-1.7c4.4-8.7,16.7-11.5,24.9-6.1c3.9,2.6,6.4,6.2,6.3,11.1c0,8.9,0,17.9,0,26.8
	c0,2.9,0,5.8,0.1,8.6c0.2,3.2,1,6.3,2.5,9.2c2.7,5.6,9.1,6.7,13.5,2.4c3.3-3.3,5.4-7,5.4-11.8c-0.1-11.2,0-22.4-0.1-33.6
	c0-1-0.1-1.9-0.3-2.9c-0.3-2-2.1-3.4-4.1-3.1c-1.3,0.2-2.4,0.7-3.7,1c-0.3,0-0.6-0.2-0.8-0.4c-0.3-0.5-0.5-1.1-0.6-1.7
	c0-0.3,0.1-0.6,0.3-0.9c4.7-7.2,14.5-10,22-6.3c5.3,2.6,8.5,6.6,8.4,12.8C524.8,490.5,524.9,496.9,524.8,503.3L524.8,503.3z"/>
<path class="st0" d="M413.4,498.6c0.4,0.8,1,1.6,1.6,2.2c1.8,1.3,3.8,2.4,5.6,3.7c1.8,1.3,3.5,2.7,5.1,4.3
	c6.3,6.4,5.8,13.9-0.1,20.4c-4.5,5-10.4,7.5-16.7,8.6c-8.2,1.5-16.5,1.5-24.6-1c-3.4-1-6.6-2.5-9.5-4.4c-5.8-3.8-8.5-10.9-6.7-17.6
	c0.8-3.9,4.1-6.7,8-7.1c2.2-0.2,4.5,0,6.7-0.1c0.2,0,0.7-0.3,0.7-0.4c0-0.6,0-1.4-0.3-1.7c-1.2-1.1-2.6-1.9-3.8-2.9
	c-2-1.6-3.8-3.4-5.6-5.2c-5-5.4-5.1-13.7-0.2-19.3c2.4-3.1,5.5-5.4,9.1-6.8c12.3-4.4,24.4-4.1,36.2,1.7c3.8,1.9,6.7,5,8.3,8.9
	c1.9,4.4,1.6,8.7-1.5,12.6c-1.6,2.1-3.9,3.4-6.5,3.6C417.2,498.3,415.3,498.4,413.4,498.6c-0.1-1.3-0.5-1.9-1.6-0.8L413.4,498.6z
	 M408.1,525.8c-0.1-4.3-1.2-6.6-4.3-8.8c-4.7-3.3-9.7-6.1-14.9-8.3c-0.6-0.2-1.2-0.1-1.7,0.2c-0.4,0.4-0.7,1-0.6,1.6
	c2.1,4.7,2.1,10.1-0.1,14.7c-0.3,0.9-0.5,1.8-0.4,2.8c0,1.6,0.9,3.1,2.3,3.9c5.3,2.9,10.8,3.3,16.3,0.4c1.5-0.7,2.5-2,2.9-3.6
	C407.8,527.6,408,526.4,408.1,525.8L408.1,525.8z M409.1,495.8c0.6-0.3,0.8-1.1,0.5-1.7c0,0,0,0,0,0c-1.9-4.1-1.8-8.8,0.3-12.8
	c0.5-1.1,0.9-2.3,1.1-3.6c0.1-0.6-0.1-1.2-0.5-1.8c-2.4-3.2-7.5-4.7-11.1-3.4c-7.1,2.6-9.1,9.4-4.5,15.3c0.6,0.8,1.2,1.5,1.9,2.1
	c3.2,2.6,6.8,4.7,10.6,6.3C407.8,496.4,408.4,496,409.1,495.8L409.1,495.8z"/>
<path class="st0" d="M598.3,494.3c-0.1-6.3-0.6-11-2.5-15.5c-2.2-5.2-7.5-7.8-13.4-6.8c-0.6,0.2-1,0.7-1.2,1.3
	c-0.1,0.6,0,1.3,0.2,1.9c0.9,3.1,1.1,6.3,0.7,9.5c-0.1,1.3-0.5,2.5-1.1,3.6c-2,3.8-6,5.3-11.7,4.4c-3.6-0.6-6.3-3.5-6.8-7.1
	c-0.6-4.7,0.8-9,4.8-11.8c2.1-1.5,4.4-2.6,6.8-3.4c6.2-2.2,12.5-2.2,18.9-1.4c2.5,0.3,5,0.9,7.5,1.7c12.1,3.9,19.3,12.7,19.8,25.3
	c0.3,6.4,0.1,12.8,0.1,19.2c0,2.9,0,5.8,0.1,8.6c0.1,3.3,1.9,4.6,5,3.9c0.9-0.2,1.8-0.8,2.7-0.9c0.6,0,1.1,0.2,1.5,0.7
	c0.2,0.6,0.2,1.2,0,1.8c-0.4,0.9-0.8,1.7-1.5,2.4c-2.7,3.2-6.5,5.3-10.6,6c-3.8,0.6-7.7-0.3-10.9-2.5c-2.4-1.5-3.5-4.6-6.5-5.3
	c-1.9,1.7-3.8,3.4-5.8,5c-3.2,2.7-7.3,4.1-11.5,4.2c-4.8,0.1-9.5-0.1-14.2-1.8c-4.3-1.5-7.9-4.4-10.2-8.3
	c-4.7-7.7-2.2-17.8,5.5-22.4c0,0,0.1,0,0.1-0.1c5.9-3.5,12.5-4.7,19.2-5.3c3.8-0.3,7.7-0.3,11.5-0.4c1.7-0.1,3-1.4,3.1-3
	C598.2,495.9,598.3,494.4,598.3,494.3z M599.1,514.8h-0.2c0-2.5,0-5.1,0-7.6c-0.1-1.3-1.1-2.3-2.4-2.6c-2.5-0.1-5,0-7.5,0.4
	c-3.5,0.7-6.5,3.1-7.7,6.5c-1.5,3.5-2.3,7.3-2.4,11.1c0,2.6,0.7,5.1,1.9,7.3c1,2,3.1,3.3,5.4,3.4c2.2,0.3,4.5-0.4,6.3-1.7
	c4.4-3.6,7.2-8,6.8-13.9C599,516.7,599.1,515.8,599.1,514.8L599.1,514.8z"/>
<path class="st0" d="M735.6,536.9c-8,0-16,0-23.9,0c-1.6,0-3.2-0.3-4.7-0.4c-0.9-0.4-1.5-1.2-1.5-2.2c0-0.9,0.3-1.9,0.6-2.8
	c1.4-2.5,3-4.9,4.5-7.3c8.9-14,17.8-28,26.7-42c0.8-1.3,1.6-2.8,2.3-4.2c0.5-1-0.5-2.7-1.7-2.9c-0.3-0.1-0.6-0.1-0.9-0.2
	c-6.1,0-12.1-0.2-18.2,0c-4,0-7.4,3-7.9,7c-0.3,1.6-0.3,3.2-0.5,4.8c-0.1,1.3-0.3,2.5-0.4,3.8c-0.1,0.8-1.5,1.7-2.2,1.3
	c-0.5-0.3-1-0.7-1.3-1.3c-0.3-0.6-0.4-1.2-0.4-1.8c0-4.8,0-9.6,0-14.4c-0.2-1.9,1.2-3.6,3.2-3.8c0.1,0,0.2,0,0.3,0
	c1,0,1.9-0.1,2.9-0.1c16,0,31.9,0,47.9,0c1.6,0.1,3.2,0.2,4.7,0.5c1,0.1,2.1,2.1,1.6,3.1c-0.8,2.1-1.8,4.1-2.9,6
	c-3.9,6.2-7.9,12.4-11.8,18.6c-5.8,9.2-11.7,18.3-17.4,27.5c-0.9,1.6-1.7,3.4-2.3,5.2c-0.1,0.4,0.5,1.1,0.9,1.5
	c0.3,0.2,0.6,0.3,0.9,0.3c6.7,0.1,13.4,0.2,20.1,0.1c3.7-0.1,7.4-3.2,8.4-6.8c0.3-0.9,0.5-1.9,0.6-2.8c0.2-1.6,0.3-3.2,0.4-4.8
	c0.1-1.3,1.7-2.9,2.3-2.4c0.7,0.6,1.2,1.4,1.6,2.2c0.1,0.3,0.2,0.6,0.1,0.9c0,4.5,0.1,8.9,0,13.4c-0.1,3.5-1.7,4-4.2,4
	C754,537,744.8,536.9,735.6,536.9L735.6,536.9z"/>
<path class="st0" d="M674.5,491.4v26.8c0,1.9,0.1,3.8,0,5.7c-0.2,4.8,0.9,8.9,5.7,11.1c0.1,0.1,0.1,0.6,0.1,0.8
	c-0.1,0.3-0.2,0.5-0.4,0.6c-0.3,0.1-0.6,0.2-0.9,0.2c-10.2,0-20.4,0-30.6-0.1c-0.3,0-0.5-0.1-0.8-0.3c0.1-0.6,0.1-1.3,0.5-1.6
	c0.7-0.6,1.5-1.1,2.4-1.6c1.3-0.9,2.2-2.4,2.4-4c0.3-1.9,0.5-3.8,0.5-5.7c0-21.1,0-42.2,0-63.2c0-1.6-0.1-3.2-0.4-4.8
	c-0.2-1.8-2.8-3.2-4.5-2.5c-1.5,0.6-2.8,1.4-4.3,2.1c-0.2,0.1-0.7,0-0.8-0.1c-0.2-0.5-0.7-1.2-0.5-1.6c4.8-9.4,16.4-12.9,25.3-7.5
	c4.1,2.5,6.4,6.1,6.3,11.1c-0.1,5.4,0,10.9,0,16.3L674.5,491.4z"/>
<path class="st0" d="M342.5,504.6c0,7.3-0.1,14.7,0,22c0,3.4,1.4,6.2,4.7,7.7c0.3,0.1,0.6,0.3,0.8,0.6c0.2,0.2,0.2,0.5,0.3,0.8
	c0.1,0.8-0.3,1-1.1,1c-10.2,0-20.4,0-30.6,0c-0.9,0-1.3-0.3-1.1-1.1c0-0.3,0.1-0.7,0.3-0.8c4.6-1.9,5.6-5.4,5.6-10
	c-0.2-12.8,0-25.5-0.1-38.3c0-1.3-0.1-2.5-0.2-3.8c-0.3-2.4-2.2-3.7-4.8-3.1c-0.9,0.2-1.8,0.7-2.7,0.8c-0.5,0-1.1-0.4-1.5-0.8
	c-0.2-0.3-0.2-0.6-0.1-0.9c0.3-0.9,0.7-1.8,1.2-2.6c1.8-2.3,4.2-4,6.9-5c5.1-2.1,10.8-1.8,15.8,0.6c3.9,1.8,6.4,5.6,6.6,9.8
	c0.3,4.1,0.1,8.3,0.1,12.4c0,3.5,0,7,0,10.5L342.5,504.6z"/>
<path class="st0" d="M331.8,466c-6.7,0.4-11-5.3-11.5-10.4c-0.5-5.7,5.2-12,11-12.3c5.5-0.3,12.1,5.9,12,11.3
	C343.3,459.6,339.2,466.4,331.8,466z"/>
<path class="st4" d="M800,538.5c-4.9,0-9.9-4.8-10-9.8c-0.2-5.7,4.3-10.4,9.9-10.6c0.1,0,0.1,0,0.2,0c5.3,0,10.5,5.3,10.1,10.7
	C809.9,533.8,804.9,538.5,800,538.5z"/>
<path class="st0" d="M413.4,498.6l-1.6-0.8C412.9,496.8,413.3,497.4,413.4,498.6L413.4,498.6z"/>
</svg>
