<?xml version="1.0" encoding="utf-8"?>
<!-- Generator: Adobe Illustrator 24.1.1, SVG Export Plug-In . SVG Version: 6.00 Build 0)  -->
<svg version="1.1" id="Layer_1" xmlns="http://www.w3.org/2000/svg" xmlns:xlink="http://www.w3.org/1999/xlink" x="0px" y="0px"
	 viewBox="0 0 2000 2000" style="enable-background:new 0 0 2000 2000;" xml:space="preserve">
<style type="text/css">
	.st0{fill:#FFFFFF;}
	.st1{font-family:'Rosmatika-Regular';}
	.st2{font-size:131.9447px;}
	.st3{letter-spacing:10;}
	.st4{fill:none;stroke:#8C6239;stroke-width:12;stroke-miterlimit:10;}
	.st5{fill:#8C6239;}
	.st6{font-size:284.7755px;}
	.st7{letter-spacing:23;}
</style>
<text transform="matrix(1 0 0 1 653.3688 1095.0463)" class="st0 st1 st2 st3">isualz.</text>
<g>
	<path class="st0" d="M798.2,699.2C721.46,832.73,646.02,964,569.29,1097.5c-13.63-23.97-26.15-46-39.92-70.22
		c-37.86,67.67-74.3,132.8-111.18,198.72c-4.4-1.08-8.52-2.09-12.69-3.12c17.45-32.14,34.15-63.76,51.66-94.92
		c18.28-32.53,37.59-64.49,55.97-96.97c10.81-19.09,20.42-38.85,31.07-58.03c16.01-28.85,32.54-57.41,48.7-86.17
		c10.35-18.41,20.38-36.99,30.64-55.45c11.01-19.81,22.24-39.5,33.16-59.36c10.56-19.22,21.31-38.37,31.06-58
		c4.91-9.88,10.16-15.52,22.54-15.07C738.6,699.9,766.96,699.2,798.2,699.2z"/>
	<path class="st0" d="M345.03,699.21c33.55,0,64.05-0.41,94.51,0.45c4.53,0.13,10.52,5.36,13.05,9.81
		c21.05,37,41.53,74.32,62,111.64c9.54,17.4,18.66,35.02,29.2,54.85c9.67-16.93,18.08-31.52,26.36-46.18
		C581.09,810.4,592,791,602.81,771.55c10.26-18.46,20.31-37.03,30.55-55.49c13.11-23.63,26.33-47.21,39.51-70.81
		c10.47-18.76,21.05-37.47,31.38-56.31c4.42-8.06,7.52-16.97,12.82-24.35c2.52-3.51,8.78-4.35,13.34-6.4
		c1.11,1.46,2.23,2.91,3.34,4.37C657.07,700.53,580.38,838.5,502.24,979.08C449.25,884.74,397.8,793.15,345.03,699.21z"/>
</g>
<path class="st4" d="M1311.98,1239.77c62.1,0,124.2-0.01,186.29-0.05c25.92-0.02,34.79-8.99,35.04-34.72
	c0.15-15.79-0.11-31.58,0.14-47.36c0.07-4.42-2.14-10.3,2.79-12.84c4.84-2.5,8.55,2.47,12.24,4.94
	c29.63,19.84,58.87,40.29,88.78,59.7c22.11,14.35,43.46,3.21,43.58-23.03c0.43-97.06,0.45-194.13-0.05-291.19
	c-0.13-24.68-22.03-36.03-43.05-22.97c-17.87,11.1-34.84,23.64-52.59,34.94c-16.5,10.5-31.36,23.69-51.63,33.05
	c0-24.23,0.32-46.32-0.1-68.38c-0.34-17.93-8.92-29.45-25.65-29.41c-21,0.06-17.17-7.26-10.84-21.12
	c23.81-52.11,9.66-112.49-33.36-147.79c-44.43-36.45-104.33-39.06-151.61-5.64 M1383.5,841.44c-40.63,0-71.84-31.79-71.52-72.85
	c0.31-40.35,30.89-70.36,71.67-70.34c41.48,0.02,71.75,30.7,71.39,72.35C1454.68,810.92,1423.87,841.44,1383.5,841.44z"/>
<text transform="matrix(1 0 0 1 1162.7452 1095.1473)" class="st5 st1 st6 st7">IQ</text>
</svg>
